<?xml version="1.0" ?><svg viewBox="0 0 512 512" xmlns="http://www.w3.org/2000/svg"><g id="Snow" fill="#bae4ea"><path d="M403.3613,329.5322l-11.3125-6.5313,4.0586-1.2436a10,10,0,1,0-5.8594-19.122L368.38,309.3359l-16.12-9.3071,27.3739-8.3877a10,10,0,1,0-5.8594-19.1221l-45.1831,13.8448-31.5034-18.1886v-24.35l31.5034-18.1886,45.1831,13.8448a10,10,0,1,0,5.8594-19.1221L352.26,211.9712l16.12-9.3071,21.8676,6.7006a10,10,0,1,0,5.8594-19.122l-4.0586-1.2436,11.3125-6.5313a10,10,0,1,0-10-17.32l-11.3125,6.5312.9522-4.1362a10,10,0,0,0-19.49-4.4873l-5.13,22.2884L342.26,194.6509l6.4226-27.9a10,10,0,0,0-19.49-4.4873l-10.6008,46.0522-31.5037,18.1886L266,214.3293V177.9525l34.5811-32.2069A10,10,0,0,0,286.95,131.11L266,150.6216V132.0082L282.7373,116.42a10,10,0,1,0-13.6309-14.6357L266,104.6778V91.6152a10,10,0,0,0-20,0v13.0626l-3.1064-2.8931A10,10,0,1,0,229.2627,116.42L246,132.0082v18.6134L225.05,131.11a10,10,0,0,0-13.6309,14.6357L246,177.9525v36.3768l-21.0879,12.1752-31.5037-18.1886-10.6008-46.0522a10,10,0,0,0-19.49,4.4873l6.4226,27.9-16.1206-9.3073-5.13-22.2884a10,10,0,0,0-19.49,4.4873l.9522,4.1362-11.3125-6.5312a10,10,0,1,0-10,17.32l11.3125,6.5313-4.0586,1.2436a10,10,0,1,0,5.8594,19.122l21.8676-6.7006,16.1205,9.3071-27.3739,8.3877a10,10,0,1,0,5.8594,19.1221l45.1831-13.8448,31.5034,18.1886v24.35l-31.5034,18.1886L138.2256,272.519a10,10,0,1,0-5.8594,19.1221l27.3739,8.3877L143.62,309.3359l-21.8676-6.7006a10,10,0,1,0-5.8594,19.122l4.0586,1.2436-11.3125,6.5313a10,10,0,1,0,10,17.32l11.3125-6.5312-.9522,4.1362a10,10,0,1,0,19.49,4.4873l5.13-22.2884,16.1206-9.3073-6.4226,27.9a10,10,0,1,0,19.49,4.4873l10.6008-46.0522,31.5037-18.1886L246,297.6707v36.3768l-34.5811,32.2069A10,10,0,0,0,225.05,380.89L246,361.3784v18.6134L229.2627,395.58a10,10,0,1,0,13.6309,14.6357L246,407.3222v13.0626a10,10,0,1,0,20,0V407.3222l3.1064,2.8931A10,10,0,1,0,282.7373,395.58L266,379.9918V361.3784L286.95,380.89a10,10,0,0,0,13.6309-14.6357L266,334.0475V297.6707l21.0879-12.1752,31.5037,18.1886,10.6008,46.0522a10,10,0,0,0,19.49-4.4873l-6.4226-27.9,16.1206,9.3073,5.13,22.2884a10,10,0,0,0,19.49-4.4873l-.9522-4.1362,11.3125,6.5312a10,10,0,1,0,10-17.32ZM274.3431,266.5905,256,277.1808l-18.3431-10.59V245.41L256,234.8192l18.3431,10.59Z"/></g></svg>
