<svg xmlns="http://www.w3.org/2000/svg" viewBox="0 0 125 125"><path fill="#80d4ff" d="M104.6 56a8.1 8.1 0 0 1-2.6 4.6c10.8 54.5-18.2 45.5-18.2 45.5a13.9 13.9 0 0 1-2.6 4c44.2 15 23.4-54.2 23.4-54.2ZM87.9 51.6l-10 11.5c-6.3 8.2-22.4 1.3-22.4 1.3a4 4 0 0 0-4.6-.1s-5.9 7-7.9 9.2a54.6 54.6 0 0 1-5.1 4.6 7 7 0 0 1-3.3 1.3 7.3 7.3 0 0 1-6.6-2.2l-2.5-2.6a4.4 4.4 0 0 1-1.7-3.7 4 4 0 0 1 3-3.5c7.6-2 8.8-9 9-11.8a4.2 4.2 0 0 0-1.3-3.5 4.8 4.8 0 0 0-3.3-1.1v.7c-.2 6-5.6 9.9-8.8 11.7a17.3 17.3 0 0 0-6.1 5.8 17.5 17.5 0 0 0-2.7 11.5 11.8 11.8 0 0 0 2 5.4C27.6 102.7 64 115.4 64 115.4c-13.2-12-3.8-22.7-3.8-22.7.4 26.8 13.9 20.6 13.9 20.6C86 108.2 97.5 54 97.5 54 94 46 88 51.6 88 51.6ZM72 22.8l2.6-4.8s1.7-3.3 6-1.9a3.6 3.6 0 0 1 1 .5l3.7 2.6a4.2 4.2 0 0 1 1.7 2.4c.3 1.5.3 3.8-1.7 6.9a21.5 21.5 0 0 1 4.4 2.5s4.2-5.5 1.4-11.8a5.8 5.8 0 0 0-1.8-2.2c-2-1.5-6.5-4.6-8.1-5a12 12 0 0 0-8.4 1.2 7.2 7.2 0 0 0-1.8 1.6l-3.5 4s2.7 4.2 4.5 4Z"/><path fill="#fff" d="M81.7 31.7a35.4 35.4 0 0 1-16.8-9.2 5.6 5.6 0 0 0-4.3-1.8c-5.3.3-16.6 1.7-19 9.5a13.7 13.7 0 0 1-3.8 5.8 17.2 17.2 0 0 1-6.3 3.8 1.9 1.9 0 0 0-.4.2s-5.7 3 6.3 10.4c0 0 3.5-6.6 9.3-3.3l5.2 3.4s3.8 1.1 3 8.6c0 0 15.4 8 26.3-5.7 0 0 12-15.5 20.2 0 0 0 3.4-14-19.4-21.6ZM26.5 70.2c6.4 14.8 16-2.3 16-2.3l-5-4.4c-5.9 8.4-11 6.7-11 6.7Z"/><path fill="#fff" d="M43.5 58.7a6.7 6.7 0 0 1-1.4-1.2 1.5 1.5 0 0 1-.3-.7c0-1-.2-3.7 1.7-7.7 0 0-5.8 3.3-5.3 8.3a4.7 4.7 0 0 0 1.2 2.5 10.4 10.4 0 0 0 4.8 3.5 2.5 2.5 0 0 0 1.6-.1c1.6-.7 4.5-2.8 4-9.7 0 0-1.6 4.8-4.6 5.4a2.3 2.3 0 0 1-1.7-.3Z"/></svg>