<svg xmlns="http://www.w3.org/2000/svg" viewBox="0 0 128 128"><path fill="#80d4ff" d="M26.6 10.5c.9 9.7 3.1 17.1 7.3 24.8 3.3 5.9 4.2 8.8 5.1 16.1 1.3 10.5 2.9 14.6 3 7.5 0-3.9.4-4.9 2.7-6.4 1.5-1 3.9-1.9 5.4-1.9l2.6-.1-2.1-4.5c-1.1-2.5-4-7.2-6.5-10.5A108 108 0 0 1 32 12.6 15 15 0 0 0 29 8l-3-3.5.6 6zM91.5 27.5c.4 2.2 2.7 8 5 13 5.8 12 9.4 21.2 10.1 25.6 1 5.9 1.7 6.3 5.3 3l3.3-3.1-2.2-5.7a64.8 64.8 0 0 0-6.1-11.6c-2.2-3.1-5-8.1-6.2-11a45.3 45.3 0 0 0-6-9.8l-3.9-4.4.7 4zM12 50.5c0 4.6 3.2 21.4 5 26.5 2.2 6.3 7.8 17 8.8 17 .4-.1 1.7-.9 3-2l2.3-1.9-2.7-4.8a62.6 62.6 0 0 0-4.6-6.9c-1-1.1-2.5-5.4-3.4-9.5a54.9 54.9 0 0 0-6.8-18.1c-1.5-2.1-1.6-2.1-1.6-.3z"/><path fill="#fff" d="M50.2 55.7c-.2 5.4-2.2 6.7-2.3 1.6l-.2-3.8-.7 4c-.6 3.7-1.1 3.6-2.3-.5-.2-.8-.4 2.2-.5 6.8-.1 7.3-.4 8.6-2.6 11.3-1.5 1.7-2.6 3.9-2.6 5 0 2.2 3.9 4.4 9.9 5.4 2.9.5 5.6 1.9 8.2 4.2 4.6 4.1 4.9 6 1.3 7.3-3.4 1.3-3.3 1.4-4.4-1.5-.8-2.1-1.3-2.4-2.9-1.6-2.1 1.2-3.5 5.3-2.6 8 .4 1.2-.2 2.1-1.9 2.9-2.1.9-2.6.7-4.5-1.9-1.3-1.7-2.8-2.8-3.4-2.6-2.6.9-4.7-1.2-4-4.3.5-2.7.3-3-2.1-3-1.6 0-2.6.6-2.6 1.4 0 .8-1 1.6-2.2 1.8-1.7.2-2.3 1-2.3 2.8 0 2.1.5 2.5 2.9 2.5 3.5 0 4.4 1.9 4.5 9.6.1 4.3.6 6 2.2 7.5 2 1.8 2.1 1.8 3.4 0 .9-1.1 1.9-1.5 2.7-1 1.6 1 5.9.7 12.1-.7 3.6-.8 5.2-.8 6 0 1.8 1.8 5 1.3 8.9-1.4 2-1.4 4.6-2.5 5.6-2.5a3 3 0 0 0 2.6-1.5c.3-.8 1.2-1.5 2-1.5 2.1 0 10.6-9.9 11.3-13.2.9-4.4 7.1-9 14.9-11.2 9.5-2.6 10.2-3.1 11.5-7.9.6-2.3 1.5-4.7 2.1-5.4.6-.8.3-1.5-.9-2.2-2.6-1.3-3.7-.4-6.3 5.1l-2.2 4.8-5.3-.3c-3.9-.1-5.8.3-7.2 1.5-1.1 1-2.5 1.8-3.1 1.8-1.4 0-1.6-2.2-.3-3.5a17 17 0 0 0 1.4-5.8c.4-4.3.2-5-2-6.4-2.2-1.5-3-1.5-6.7-.2-4 1.4-4.1 1.5-4.4 6.3-.2 3.5-.9 5.4-2.5 6.7-2.4 2-4.7 2.5-4.7.9 0-1.3-3.7-1.3-4.5 0-1.2 2-21.5-.8-21.5-3 0-.5 2.5-2.8 5.5-5.2 5.9-4.6 6.8-6.1 3.3-5.6-2.2.3-2.3 0-2.3-6.5 0-3.7-.3-6.7-.7-6.7-.5 0-.8 1.1-.8 2.4 0 1.3-.3 3.3-.7 4.3-.6 1.2-1 .1-1.4-3.7-.5-5.1-.6-5.2-.7-1.3z"/></svg>