<svg xmlns="http://www.w3.org/2000/svg" viewBox="0 0 125 125"><path fill="#80d4ff" d="M35.6 71.1H23.8l4.7 5.3 9.4.7-2.3-6zM61 67.9S53.2 73 51 81.5l3.4 1.4L49 98.6l2.2 1L49 105l7.2-2.7 1 1.8 6.6-1.8 2.6-5.8-5.9-.4L66 81.8l-3.1-.1ZM58.3 18.8 56.1 22l8 7.4v10.8l6.3.2-2.1-10.5-10-11.1zM49.2 23l-3.4 2.3 9.2 8V40l5.6-.2-1.7-8.1-9.7-8.7zM30.8 54.5l-2.5 8.3 9 1.9 4.7-9.3Zm2.2 7.7-2-.5 1-5.8 2 .5Zm3.2.7-2-.4 1.4-5.7 2.4.3Z"/><path fill="#fff" d="m90.3 76 2.9-.9-7.3-12.6 4.4-1-12.9-13.7V35.5L64.3 18.8h-6l10 11 2 10.6-6.2-.2v-7.6l-9.8-8.7-5-1 9.6 8.8 1.7 8-5.8.3c-4.2 1-24 14.5-24 14.5l11.2.9-4.7 9.3 11-.3-7.7 3H25.8l1 3.7h8.8l2.3 6L61 67.9l1.8 13.8h3L60.5 96l5.9.4-2.6 5.8 5.2-.4 2.6-3.6 5 2 15.6-6.4 4.5-8ZM63.9 61.1c-4.5.7-8.7-4-9.2-9.9-.4-5.4 2.6-9.1 6.4-9.2 3.6-.2 7 3 8 7.9 1.2 5.3-1.1 10.5-5.2 11.2Z"/><path fill="#fff" d="M67.8 49.7c-.8-3.6-3.4-6.3-6.1-6.2s-5 3.2-4.7 7.2c.3 4.5 3.5 8 6.8 7.4 3.1-.5 4.8-4.4 4-8.4Zm-4.5 1.5a2.3 2.3 0 0 1-.5-4.6 1.4 1.4 0 0 0 0 .6 1.5 1.5 0 0 0 2.7.8 2.2 2.2 0 0 1 .2.9 2.3 2.3 0 0 1-2.4 2.3Z"/><path fill="#fff" d="M66.1 15.2 81 34.4v12.2l14.3 15.6-4.4 2.1L98.5 78l-3.2.1 5.9 9.9L94 98.3l-16.8 6.5-3.7-1.5-4 3L63 108l-6.8 1.3-1.2-2.5-10.1 3.3 2.2-8.1-3-1.6L50.6 85l-4-1 1.7-3.3 1.9-4.7-14.4 4.5-10.5-1.8-5.7-9.3 2.5-.1-.4-4 2.6-.9 4-13.1c3-2 16.2-10.8 22.4-13.6l-.7-4.3-9.6-9.6 6.7-4.2 6.1-.3 3.6-4.2H66m5.2 94 2.7-3 3.1 1.7 17.9-6.4 1-.3.6-1 8.5-12.5-6.2-7.7 3-.1-7-13.5 5-3L83.5 45l.6-11.7L68.9 13l-.5-.8H55.5l-1 1.3-2.3 2.8-5 .1h-1l-.8.5-7 4L35 23l11.7 12.8a361 361 0 0 1-20.6 13l-4.3 13.8-3.6.7.7 3.8-3.5.5L23.6 82 36 84l9.9-3.8-2.7 5.6 4 1.8-7.6 13.8 3.7 2.3-3.3 11.1 13.3-3.6 1.3 1.5Z"/></svg>