<svg xmlns="http://www.w3.org/2000/svg" viewBox="0 0 125 125"><path fill="#80d4ff" d="M27.6 38.2c-14.7 38 13 33 13 33-20.8-4.4-13-33-13-33Z"/><path fill="#80d4ff" d="M39.1 63.9s-7.2-3-6.8-19.5c0 0-5.3 17 6.8 19.5ZM84 28.9c8 3.2 3.5 19 3.5 19 9.7-22.3-3.5-19-3.5-19Z"/><path fill="#80d4ff" d="M90 20.5c14.2 16.6-1.7 32-1.7 32 23.6-21 1.6-32 1.6-32Z"/><path d="m44.1 53.3-.3 1.3a2.5 2.5 0 0 1-.4 1 1 1 0 0 1-.7.1l-.2-.5a2.9 2.9 0 0 1 0-.7c-.4.5-.7 1-1.1.6-.3-.1-.2-.6-.3-1l-.8-.1a3.2 3.2 0 0 1 .3-.8 11.8 11.8 0 0 0 1.4-4.4v-.2c-.4-.8 0-1.5 0-2.2a2.5 2.5 0 0 1 .3-.5l.1-.3a1.8 1.8 0 0 0-.7-1.4 2 2 0 0 1-.7-.7l-.7-1.5a2.2 2.2 0 0 1-.3-1.5l-.3-1a11.6 11.6 0 0 1 .4-1.1 1.4 1.4 0 0 1 .5-.7 10.7 10.7 0 0 1 1.1-.5 12 12 0 0 0 2.4-1 20 20 0 0 0 2.5-2.4L48 32a6.4 6.4 0 0 1 3.5-1.8 4.8 4.8 0 0 1 2 .3 1.3 1.3 0 0 0 1-.2 2.5 2.5 0 0 1 2-.5 3.6 3.6 0 0 0 1-.1 2.4 2.4 0 0 1 .4 0c.8 0 1.2-.5 1.2-1.3l-.2-4.9c0-1 .3-2.2.4-3.3a2.8 2.8 0 0 0-.2-.8 3 3 0 0 1 0-.6 3.6 3.6 0 0 1 .1-.8.8.8 0 0 1 .3-.4c.4-.3.9-.6.5-1.2a.4.4 0 0 1 .2-.4 5.6 5.6 0 0 1 3.5-.8l2 .5.3.3a3.3 3.3 0 0 0 .4.5 5.4 5.4 0 0 1 2.3 3.5 1.8 1.8 0 0 1-.1.8l-.8 2.3a1.5 1.5 0 0 0-.1.7 2.6 2.6 0 0 1-.7 2.6.6.6 0 0 0 0 .9 3.3 3.3 0 0 1 .6 1.1 2.5 2.5 0 0 0 .8 1.3 2.5 2.5 0 0 1 1 1.5 1.4 1.4 0 0 0 .4.6l2.1 2a9.3 9.3 0 0 1 .8 1.2l.4.4c2 .3 3 1.8 4 3.3a5 5 0 0 1 1 3 2.2 2.2 0 0 0 .6 1.7 6.5 6.5 0 0 1 1.1 1.8 6 6 0 0 0 2.2 3 1.7 1.7 0 0 1 .8 2 15.7 15.7 0 0 1-.5 1.6 2 2 0 0 1-1.4 1.1 5.4 5.4 0 0 1-3.1 0c-.6 0-1.2-.3-1.8-.4-.4-.1-.5 0-.6.4a4.5 4.5 0 0 0 .2 2.8 4.3 4.3 0 0 0 .5.8l.4.7-.8.4a2.2 2.2 0 0 0-.4.2.9.9 0 0 1-1.3.1 6.6 6.6 0 0 1-.6-.4s0 0-.1 0c-.2.3-.3.8-.7.6a1.5 1.5 0 0 1-.8-.7 10 10 0 0 1-.3-1.7 3.4 3.4 0 0 0-.1-.3h-.2l-.3 1c0 .4 0 1-.6 1-.4 0-.6-.3-.6-1V55h-.4a6.6 6.6 0 0 0 0 1.4l.6 3.4a1.5 1.5 0 0 0 .3.6c1.4 1.4 1.6 3.2 2 5a2.8 2.8 0 0 1-.2.7 3.5 3.5 0 0 0-.4-.6.7.7 0 0 0-.6-.2l-.3.3-.2 1.4-.8 4a1.6 1.6 0 0 1-1.9 1.4.8.8 0 0 0-.5.3 9.5 9.5 0 0 0-.8 1.7 9 9 0 0 1-2 3.1 1.8 1.8 0 0 0-.2.3 1.4 1.4 0 0 0 0 .2l1 .2a1.6 1.6 0 0 1 1.5 1 1.1 1.1 0 0 0 1 .8 1 1 0 0 1 .6.4 13.4 13.4 0 0 1 1 2 1.2 1.2 0 0 1-.2.8 1.1 1.1 0 0 0 0 1.1l1.2 2.8a1 1 0 0 0 .2.3l1.6 1.3a3.8 3.8 0 0 1 1.4 2.4 4.1 4.1 0 0 0 .5 1.4c.5.7.5 1.3-.1 1.8a11.2 11.2 0 0 1-1.6 1 .7.7 0 0 1-1-.2.7.7 0 0 0-1.2 0 6.9 6.9 0 0 1-.9 1 3.8 3.8 0 0 1-1.2.4l-.9.2a2.4 2.4 0 0 1-.6.2 14.4 14.4 0 0 1-2.6.1 2.6 2.6 0 0 1-1.5-.8 2 2 0 0 1 0-2.3 2.9 2.9 0 0 1 2.3-1.8 4.2 4.2 0 0 0 1-.4c.3-.2.4-.4.1-.7s-.6-.8-.2-1.4c.1 0 0-.4-.2-.5-1-.3-1.7-1.2-2.8-1.3-.5 0-.8 0-.9.6a2.6 2.6 0 0 1-1 1.5 5.8 5.8 0 0 0-1.2 1.9c-.8 1.8-1.7 3.6-2.4 5.5a6.7 6.7 0 0 0-.4 1.9 4.8 4.8 0 0 1-.2 2 1 1 0 0 0 .1 1 1.3 1.3 0 0 1 .3 1.2l-.4 2.3a23.6 23.6 0 0 0 .2 5.1 4.6 4.6 0 0 1 0 1.6 4.5 4.5 0 0 1-2.5 2.8s-.4 0-.5-.2c-.5-.5-.6-.5-1 0a1.3 1.3 0 0 1-2-.4c-.2-.7-.5-.8-1.2-.7a.8.8 0 0 1-.6-.1c-.4-.4-.9-.7-.9-1.1a6.6 6.6 0 0 0-.4-2 1 1 0 0 1 0-.7c.5-1 .3-2.1 1-3a2.4 2.4 0 0 0 .5-.4 5.5 5.5 0 0 0 .5-1l.7-2.3.5-1.6a1 1 0 0 1 .2-.5 4.4 4.4 0 0 0 1-2.3 2.3 2.3 0 0 1 .4-1A5.2 5.2 0 0 0 54 94v-5a2 2 0 0 0-.8-1.5 1.3 1.3 0 0 1 0-2 2.3 2.3 0 0 0 .5-2.5 1.2 1.2 0 0 1 .4-1.5 3.4 3.4 0 0 0 .7-1 1.5 1.5 0 0 0 0-1.8 5 5 0 0 1-.6-1.5 1.3 1.3 0 0 1 0-.7 1.3 1.3 0 0 0-.2-1.3 2.4 2.4 0 0 1-.4-1.2c0-2.5.1-5 .3-7.4l.3-2.4c.1-.8 0-1-.8-1.3a1 1 0 0 1-1-1.4l.5-2.8a1.4 1.4 0 0 0-.5-1.4.8.8 0 0 1-.2-.6l.1-2.8c0-.5.5-.8 1.2-1a2.4 2.4 0 0 0 .7-.2c0-.3-.2-.5-.3-.7a24.6 24.6 0 0 1-1.3-2.1c-.1-.3 0-.7.2-1a1.6 1.6 0 0 0-.2-2 2.3 2.3 0 0 1-.2-.8l-.5-1.5a11.8 11.8 0 0 1-.9-4.1 3.3 3.3 0 0 0-.3-1.4 1.2 1.2 0 0 0-1.8-.6 21.2 21.2 0 0 0-3 2.4c-.3.3-.2 1.1-.1 1.6a5.6 5.6 0 0 0 .7 1.4l1.2 2.3a18.3 18.3 0 0 1 1.6 4.3l-.2.6a1.3 1.3 0 0 1-1-.1 1.6 1.6 0 0 1-.4-1c-.1-.4-.3-.7-.7-.7a1 1 0 0 0-.7.5 27.7 27.7 0 0 0-.6 3c-.1.7 0 1.4-.2 2 0 .3-.4.4-.6.6-.1-.2-.4-.4-.4-.7a9 9 0 0 1 0-1.3Zm25.2-3 .2.1a4.4 4.4 0 0 0 .7-.5 5.1 5.1 0 0 1 3.1-1.4h1.9c.4 0 .4-.2.2-.6l-1.2-2a4.5 4.5 0 0 0-.5-.8c-.5-.6-1.2-.7-1.6-.2a26.9 26.9 0 0 0-1.5 2.6l-1 2.3c-.2.1-.2.3-.3.4Z" fill="#fff"/></svg>