<svg xmlns="http://www.w3.org/2000/svg" viewBox="0 0 125 125"><path d="M29.4 27.3s72.7-36.4 83 45c0 0-10.7-29.4-33-8.5 0 0-3.7-36.9-50-36.5Z" fill="#fff"/><path fill="#80d4ff" d="m71.4 97.1-15.6.6-19.6 12s-3.6 1.7-5.1-1.4c0 0-1.2-2.7 1.8-6.2l19.5-5.7L51 85.5l4.3 5 .5 3.1 15.5.4 3.4-2.6h3l-4 4 .3 1.4 9.9 5.1s2.3.9 1.6 2.8c0 0-1.1 3.3-3.9 1.2Z"/><path fill="#80d4ff" d="m109.8 73.6-2-3.1-9.5 7.3-5.3-5.2-5 .3-11.4-7.1.9-3.7-1.6-3.7-2.4 5.2L60.7 56l7.8-10.3c.2-1.3-2.1-2.6-2.1-2.6l-8.2 11.7-23.9-3 .7-22.6a14.9 14.9 0 0 0-3.1 0l-.3 22.4-8.9-1.1c.4-1.3-1.2-2.7-1.2-2.7a11 11 0 0 0-1.6 3.2 3.4 3.4 0 0 0 1.1 3.5l5.3 4.6-10.6 4.5h-5.1l-1.1 2.2 14.3 17.5 2.8 1.3-1-2.6.2-1.8 22.9-1.4 8.9 9 42 1.4L98 84l1.5-.1 9 3.7-7.5-7.3ZM34.4 55.4l25.2 3.8L71 68l-6 12.3ZM67 81.6l6.7-11.2L89 84Z"/></svg>