<svg xmlns="http://www.w3.org/2000/svg" viewBox="0 0 125 125"><path d="M110.4 62C99 51.8 79 42.8 79 42.8s-16.7 12-35 0c0 0-8.5 7-31 17a.8.8 0 0 0-.3 1.3l11.6 15.8a87.7 87.7 0 0 1 14.3-6.7l-2.7 41.2s20.9 10.3 50.2 2.3L84.5 72a48.7 48.7 0 0 1 11 5.8ZM74.2 48.5c-15.5 14.8-29.8-.5-29.8-.5 12 6 29.8.5 29.8.5Zm-33.6 60.3 41.6 1.6a53.1 53.1 0 0 1-41.6-1.6Z" fill="#fff"/><path d="M61.5 34.2s-8.1 8-10.8 8.3l-3.9-2a49 49 0 0 0 15.5-12.7l1.3-1.8a20.6 20.6 0 0 0 2-3.9l.7-1.9a9.6 9.6 0 0 0 .6-3c.1-2.1 0-3.5-1.3-5-2.8-3-8.3-2.2-9.3 3a8.4 8.4 0 0 0 0 3l.4 2.2-3.7.6-.5-2.7a17 17 0 0 1 0-2.4 9.1 9.1 0 0 1 16-6 9.9 9.9 0 0 1 2.2 8.2 27.2 27.2 0 0 1-6.5 13.4l11.7 9a17.4 17.4 0 0 1-3.6 1.8l-11-8" fill="#80d4ff"/></svg>