<svg xmlns="http://www.w3.org/2000/svg" viewBox="0 0 125 125"><path d="M66.8 37.4a37.6 37.6 0 0 1 36.4-20.1v-1.7c-24.3-5-45.1 9.9-45.1 9.9 2.7 2.1 2.4 5 1.8 7a6.2 6.2 0 0 1-2.2 3l-6 4.6a4 4 0 0 1-.5.3c-7 4.2-10.6-2.3-10.6-2.3-6.1 2.3-21 22-26.2 29a9 9 0 0 0-1.7 6.6c1.7 12 16.8 11.4 16.8 11.4-2.2-7.9 15-28.7 15-28.7 4.3-5.5 11-1.3 11-1.3 10.4-4 12.2-7.4 12.2-7.4Z" fill="#fff"/><path fill="#80d4ff" d="M69.2 51.3c-5.2 6-10.6 6.5-10.6 6.5 7.4 16 41 56.3 41 56.3 5-.4 6.2-7.4 6.2-7.4-23.7-19.5-36.6-55.4-36.6-55.4ZM50.2 25.8 44.7 29a5.3 5.3 0 0 0-2.5 2.9c-.4 1.9-.4 4.4 3.3 5.7a6.1 6.1 0 0 0 5.2-1l4-2.8c1.4-1 2.6-2.2 2.5-4 0-2-.7-4.3-3.5-4.6a6 6 0 0 0-3.5.7Z"/></svg>