<svg xmlns="http://www.w3.org/2000/svg" viewBox="0 0 384 384"><path fill="#80d4ff" d="M192 22c-1 3 0 6 2 9l35 35-4-8-2-2-3-5-3-4-14-21c-4-5-5-6-8-6-2 0-3 1-3 2zM154 39l-1 5c0 2 1 3 5 6l21 7 5 2 3 1 5 1 16 5v-1l-14-8-12-7-5-3-6-4-2-1-2-1-3-2c-1-1-8-2-10 0z"/><path fill="#fff" d="m254 67-3 5c-2 3-2 3 2 4 5 2 6 8 1 15-3 5-6 7-9 5l-3-4c-1-3-3-1-3 3s3 9 9 13 16 7 18 5l8-14 7-14-3-3-11-10c-8-7-11-8-13-5z"/><path fill="#80d4ff" d="M166 79c-4 2-4 4-2 6 1 2 3 2 11 2l12-1 10-2 12-2 5-2-15-1c-26-2-29-2-33 0zM205 102l-4 1c-9 2-24 13-24 17l1 3 2 3c2 7 17 25 28 32a164 164 0 0 0 33 17c7 3 13 4 24 5l13-1 5-2 4-3c2-2 2-4 2-12 0-11-2-18-6-24l-2-4-5-7-6-5-5 1c-4 1-6 1-11-1l-7-2-15-15-2-4h-13l-13 1z"/><path fill="#80d4ff" d="m164 121-2 6-2 3c-1 1-1 4 1 9a106 106 0 0 0 60 52l3 1 5 1 17 5 7 1c5 2 17 2 25 0l8-1 3-6 3-7c0-1-8 0-14 2-6 1-17 1-22-1l-7-1-7-1-5-2-5-1-3-2a74 74 0 0 1-18-9l-4-2-4-3c-13-8-25-22-33-37l-5-9-1 2z"/><path fill="#fff" d="m155 156-3 8-6 14-5 13-1 4-1 3-7 19a756 756 0 0 1-22 58l-2 4-1 4-4 9c-3 10-6 15-7 16l-4 4c-7 12 7 34 31 46 9 5 16 7 31 8 13 0 23-2 28-6 3-3 3-4 3-8s1-6 3-9l2-5 8-14c5-7 9-15 11-16a4142 4142 0 0 1 59-94l-9-1c-26 0-49-8-69-23a134 134 0 0 1-32-37c-2-2-2-2-3 3zm-52 161 2 3 8 8c13 13 34 22 55 24l8 1c0 2-5 5-11 6-10 2-23-1-36-7-17-8-31-24-31-34 0-4 2-4 5-1z"/></svg>