<svg xmlns="http://www.w3.org/2000/svg" viewBox="0 0 384 384"><path fill="#fff" d="M227 28a106 106 0 0 0-47 14c-8 5-9 7-9 21 1 11 2 16 6 28 5 14 8 20 10 20 0 0 4-3 7-8 8-11 9-13 22-37 10-20 16-28 26-35v-3l-2-1-13 1zM257 31c-3 1-11 8-16 14l-5 7-4 8-9 15a216 216 0 0 1-28 43l-4 5 2 5c3 6 5 6 9 3l5-2 10-6a113 113 0 0 1 14-8l29-15a273 273 0 0 1 37-17l28-7c4 0 4-1 0-6l-5-6c-3-3-18-16-25-20a103 103 0 0 0-34-14l-4 1zM156 59a128 128 0 0 0-29 46c-3 6-3 8 3 11 12 8 35 10 42 5l2-2-2-4-2-5-1-4a124 124 0 0 1-9-50l-4 3zM324 88a193 193 0 0 0-31 10 940 940 0 0 0-88 48v4c4 7 6 8 12 6 9-5 31-6 45-3l19 5 6 2 11 3c21 5 46 7 48 4 4-3 5-33 2-48-4-14-10-31-14-32-2-1-2-1-10 1z"/><path fill="#80d4ff" d="M103 127a142 142 0 0 0-12 15 317 317 0 0 0-43 85l-2 8a99 99 0 0 0-6 25 207 207 0 0 0-7 51l2-3a316 316 0 0 1 19-54 226 226 0 0 1 17-34l3-5 11-17c7-9 8-9 12 0 0 3 2 6 3 7 2 5 1 7-2 11l-4 5a285 285 0 0 0-24 39l-6 11-5 11-8 16-3 8a635 635 0 0 0 68-68l10 8c6 7 8 9 7 10 0 1-3 4-7 6l-7 5-12 9a294 294 0 0 0-68 76 403 403 0 0 1 75-54l9-5a353 353 0 0 1 27-12l13-5 22-8c4-1 7-3 7-4l-2-2-11-4c-32-17-52-36-61-60l-2-6-1-4c-4-9-6-27-6-50l-1-17-5 6z"/><path fill="#fff" d="M123 125a132 132 0 0 0 4 54l3 8 4-3c7-9 10-12 17-17l8-7a296 296 0 0 1 24-16c2 0 1-4-1-8s-5-4-10-1c-5 2-20 2-27-1-5-1-14-6-19-9h-3zM185 158c-28 18-46 33-48 40 0 3 1 4 5 10 7 12 23 27 34 33l11 5-3-7c-5-12-5-14-5-29l1-17c5-12 8-17 13-22l6-6c0-2-6-11-7-11l-7 4zM225 166l-7 3 4 8 7 10 8 11 6 7c15 19 32 33 43 36 6 1 10 0 14-3l5-4c11-7 26-26 33-41s9-13-12-14a151 151 0 0 1-53-10c-16-5-36-7-48-3z"/><path fill="#fff" d="M201 180c-8 8-12 19-12 32 0 11 2 23 7 32 3 7 4 8 8 9a117 117 0 0 0 70-2l4-2-7-4c-13-6-27-19-40-36l-6-7-17-24c-2-3-3-3-7 2z"/></svg>