<svg xmlns="http://www.w3.org/2000/svg" viewBox="0 0 125 125"><path d="M51.1 87.2c39.3-11 60.4-31 60.4-31l-36.3-39a96 96 0 0 1-47 23.4C17.7 43.2 15.8 52 15.8 52l12.7 53a5 5 0 0 0 .5 1c2.7 3.9 10.3 3.2 17-1.4S56 92.9 53.4 89a5.5 5.5 0 0 0-2.1-1.8Zm-7 14.4c-3.7 2.6-8 3-9.4.8s.3-6 4-8.5S46.5 91 48 93s-.3 5.9-4 8.5Z" fill="#80d4ff"/><path fill="#fff" d="M42.8 89.2 23.6 47s-1.9 0-4.9 2.5l14 47.3a18.6 18.6 0 0 1 10-7.5ZM27 41.7s-2.5 1.2-1.8 2.8l20.1 44.1a7 7 0 0 1 3.4-.3ZM59.7 84.6 42 50s-1.4-19.5 31.2-10.4a32.8 32.8 0 0 1 13 7l17.6 15.6s-19 15-44 22.3ZM39.3 105.4a4.1 4.1 0 0 1-3.5-1.6 4.3 4.3 0 0 1 0-4.4 11.6 11.6 0 0 1 8.7-6 4.3 4.3 0 0 1 4.1 1.5c1.6 2.3 0 6-3.6 8.5a10.7 10.7 0 0 1-5 2h-.7Zm5.8-10.1a3.1 3.1 0 0 0-.5 0 9.7 9.7 0 0 0-7 5 2.5 2.5 0 0 0-.2 2.4 2.5 2.5 0 0 0 2.3.8 8.9 8.9 0 0 0 4.2-1.7c2.8-2 3.9-4.6 3-5.7a2.3 2.3 0 0 0-1.9-.8Z"/><ellipse fill="#fff" cx="41.7" cy="98" rx="4.2" ry="2.4" transform="rotate(-34.9 41.7 98)"/></svg>